HIERARCHY
ROOT Hips
{
	OFFSET 0.00000 0.00000 0.00000
	CHANNELS 6 Xposition Yposition Zposition Zrotation Yrotation Xrotation 
	JOINT LHipJoint
	{
		OFFSET 0 0 0
		CHANNELS 3 Zrotation Yrotation Xrotation
		JOINT LeftHip
		{
			OFFSET 1.17584 -1.63585 1.00361
			CHANNELS 3 Zrotation Yrotation Xrotation
			JOINT LeftKnee
			{
				OFFSET 2.23889 -6.15131 0.00000
				CHANNELS 3 Zrotation Yrotation Xrotation
				JOINT LeftAnkle
				{
					OFFSET 2.65161 -7.28525 0.00000
					CHANNELS 3 Zrotation Yrotation Xrotation
					JOINT LeftToe
					{
						OFFSET 0.24898 -0.68407 1.57235
						CHANNELS 3 Zrotation Yrotation Xrotation
						End Site
						{
							OFFSET 0.00000 -0.00000 0.85838
						}
					}
				}
			}
		}
	}
	JOINT RHipJoint
	{
		OFFSET 0 0 0
		CHANNELS 3 Zrotation Yrotation Xrotation
		JOINT RightHip
		{
			OFFSET -1.15592 -1.63585 1.00361
			CHANNELS 3 Zrotation Yrotation Xrotation
			JOINT RightKnee
			{
				OFFSET -2.34071 -6.43104 0.00000
				CHANNELS 3 Zrotation Yrotation Xrotation
				JOINT RightAnkle
				{
					OFFSET -2.59113 -7.11908 0.00000
					CHANNELS 3 Zrotation Yrotation Xrotation
					JOINT RightToe
					{
						OFFSET -0.17867 -0.49089 1.70981
						CHANNELS 3 Zrotation Yrotation Xrotation
						End Site
						{
							OFFSET -0.00000 -0.00000 0.89861
						}
					}
				}
			}
		}
	}
	JOINT lowerback
	{
		OFFSET 0 0 0
		CHANNELS 3 Zrotation Yrotation Xrotation
		JOINT Chest
		{
			OFFSET -0.02255 1.90764 -0.16605
			CHANNELS 3 Zrotation Yrotation Xrotation
			JOINT Chest2
			{
				OFFSET -0.00365 1.92150 -0.04898
				CHANNELS 3 Zrotation Yrotation Xrotation
				JOINT lowerneck
				{
					OFFSET 0 0 0
					CHANNELS 3 Zrotation Yrotation Xrotation
					JOINT Neck
					{
						OFFSET 0.00372 1.59170 0.08694
						CHANNELS 3 Zrotation Yrotation Xrotation
						JOINT Head
						{
							OFFSET 0.12558 1.58643 -0.08078
							CHANNELS 3 Zrotation Yrotation Xrotation
							End Site
							{
								OFFSET 0.04211 1.60835 -0.03803
							}
						}
					}
				}
				JOINT LeftCollar
				{
					OFFSET 0 0 0
					CHANNELS 3 Zrotation Yrotation Xrotation
					JOINT LeftShoulder
					{
						OFFSET 3.69324 0.96316 0.19077
CHANNELS 3 Zrotation Xrotation Yrotation
						JOINT LeftElbow
						{
OFFSET 0 -4.877960 -0.000000
CHANNELS 3 Zrotation Xrotation Yrotation
							JOINT LeftWrist
							{
OFFSET 0 -3.231690 0.000000
CHANNELS 3 Zrotation Xrotation Yrotation
								JOINT lhand
								{
									OFFSET 0 0 0
CHANNELS 3 Zrotation Xrotation Yrotation
									JOINT LFingers
									{
OFFSET 0 -0.731320 0.000000
CHANNELS 3 Zrotation Xrotation Yrotation
										End Site
										{
OFFSET 0 -0.589610 0.000000
										}
									}
								}
								JOINT LThumb
								{
OFFSET 0 0.000000 0.000000
CHANNELS 3 Zrotation Xrotation Yrotation
									End Site
									{
OFFSET 0 -0.598610 0.598610
									}
								}
							}
						}
					}
				}
				JOINT RightCollar
				{
					OFFSET 0 0 0
					CHANNELS 3 Zrotation Yrotation Xrotation
					JOINT RightShoulder
					{
						OFFSET -3.66103 0.75145 0.08281
CHANNELS 3 Zrotation Xrotation Yrotation
						JOINT RightElbow
						{
OFFSET 0 -4.914300 0.000000
CHANNELS 3 Zrotation Xrotation Yrotation
							JOINT RightWrist
							{
OFFSET 0 -3.290930 0.000000
CHANNELS 3 Zrotation Xrotation Yrotation
								JOINT rhand
								{
									OFFSET 0 0 0
CHANNELS 3 Zrotation Xrotation Yrotation
									JOINT RFingers
									{
OFFSET 0 -0.545120 0.000000
CHANNELS 3 Zrotation Xrotation Yrotation
										End Site
										{
OFFSET 0 -0.439490 0.000000
										}
									}
								}
								JOINT RThumb
								{
OFFSET 0 0.000000 0.000000
CHANNELS 3 Zrotation Xrotation Yrotation
									End Site
									{
OFFSET 0 -0.446200 0.446200
									}
								}
							}
						}
					}
				}
			}
		}
	}
}
MOTION
Frames: 8
Frame Time: 0.008333333333333333
6.518600 15.965300 0.778400 83.849600 -86.892000 -85.983200 0.000000 0.000000 0.000000 -15.223900 -2.964800 -14.680000 5.087800 13.482000 41.200800 2.754000 5.552900 -33.669800 2.511700 -9.859100 -28.521500 0.000000 0.000000 0.000000 8.667400 7.841300 -12.939500 -5.801500 -14.233200 44.179900 -1.841600 -7.633800 -29.333700 -0.135300 2.370800 -6.531400 -1.286300 0.921000 -8.685500 -3.136900 1.590800 3.325000 -2.353700 0.781900 8.466900 1.662900 -0.997300 -3.308700 1.227000 -1.691900 10.236400 0.036400 -0.765200 3.914200 -0.000000 0.000000 0.000000 9.936100 -3.795200 -39.035900 31.692900 -42.301000 12.533700 37.162700 -8.025600 24.126800 0.000000 0.000000 0.000000 -7.125000 0.000000 0.000000 4.701100 0.730000 4.656600 -0.000000 0.000000 0.000000 -1.103000 -0.401100 35.068000 -32.542200 -42.975200 -13.109000 -16.907900 26.923700 44.469300 0.000000 0.000000 0.000000 7.125000 0.000000 -0.000000 36.031800 72.998900 -24.767500
6.515544 15.964818 0.777510 84.228305 -86.877739 -86.268254 0.000000 0.000000 0.000000 -15.234155 -3.076089 -14.689631 5.079938 13.473265 41.166934 2.791318 5.438620 -33.821915 2.464516 -9.772835 -28.244485 0.000000 0.000000 0.000000 8.663763 7.992417 -12.987540 -5.805544 -14.237244 44.196294 -1.865717 -7.619220 -29.480803 -0.123901 2.269246 -6.250364 -1.388003 0.900927 -8.796118 -3.095162 1.576651 3.302346 -2.253011 0.768375 8.502203 1.169677 -1.061693 -3.419535 1.910332 -1.804839 10.000002 0.343786 -0.810571 3.865046 0.000000 0.000000 0.000000 9.899169 -3.750384 -39.080565 31.486809 -42.134244 12.395188 36.977811 -7.614965 23.946029 0.000000 0.000000 0.000000 -7.125000 0.000000 0.000000 4.627769 0.992713 4.562045 0.000000 0.000000 0.000000 -1.132778 -0.284191 35.162342 -32.646834 -43.056817 -13.180369 -30.507306 32.258216 32.883967 0.000000 0.000000 0.000000 7.125000 0.000000 0.000000 2.572656 66.803156 -1.522121
6.516055 15.965917 0.776519 85.713343 -86.892695 -87.710875 0.000000 0.000000 0.000000 -15.230203 -3.163332 -14.671226 5.071864 13.464238 41.132223 2.803824 5.401640 -33.873441 2.382781 -9.621591 -27.759896 0.000000 0.000000 0.000000 8.684897 8.091655 -13.044125 -5.811341 -14.242986 44.219698 -1.850683 -7.708198 -29.438621 -0.139712 2.408452 -6.635914 -1.438137 0.918886 -8.796164 -3.084081 1.606563 3.320919 -2.208293 0.779738 8.521505 1.263479 -1.213385 -3.983625 1.858485 -2.024983 10.205548 0.296403 -0.911006 4.048897 0.000000 0.000000 0.000000 10.011441 -3.785920 -39.198223 31.436466 -42.093288 12.361447 36.359641 -7.474557 24.101292 0.000000 0.000000 0.000000 -7.125000 0.000000 0.000000 4.229331 0.997323 4.166481 0.000000 0.000000 0.000000 -1.104791 -0.322560 35.232667 -32.603609 -43.023142 -13.150818 -36.866773 31.304157 24.353663 0.000000 0.000000 0.000000 7.125000 0.000000 0.000000 -8.773360 59.259899 3.056601
6.514721 15.968279 0.775582 86.481403 -86.844764 -88.426005 0.000000 0.000000 0.000000 -15.303501 -3.222051 -14.677790 5.059593 13.450539 41.079446 2.789318 5.610825 -33.892754 2.429926 -9.709377 -28.040612 0.000000 0.000000 0.000000 8.617310 8.113319 -13.111012 -5.813896 -14.245514 44.230167 -1.854697 -7.668589 -29.440276 -0.141474 2.424170 -6.679462 -1.479057 0.941236 -8.788782 -3.134147 1.643307 3.305063 -2.232726 0.796425 8.501838 0.968268 -1.245045 -4.018216 2.453248 -2.091802 9.861623 0.542850 -0.930910 3.946232 0.000000 0.000000 0.000000 10.186785 -3.773898 -39.305115 31.389724 -42.055220 12.330092 36.157170 -7.455396 24.248450 0.000000 0.000000 0.000000 -7.125000 0.000000 0.000000 4.079904 0.888454 4.026393 0.000000 0.000000 0.000000 -0.987702 -0.290077 35.213354 -32.545581 -42.977810 -13.111225 -37.715462 30.527644 22.430560 0.000000 0.000000 0.000000 7.125000 0.000000 0.000000 -9.955307 57.258666 3.009476
6.511805 15.971286 0.775771 86.826699 -86.891946 -88.671971 0.000000 0.000000 0.000000 -15.262835 -3.307798 -14.722006 5.054176 13.444586 41.056414 2.797539 5.671766 -33.967484 2.431594 -9.712417 -28.050461 0.000000 0.000000 0.000000 8.656731 8.169635 -13.178878 -5.804938 -14.236628 44.193770 -1.871500 -7.563275 -29.484200 -0.119861 2.231996 -6.147188 -1.421940 0.937729 -8.821616 -3.155858 1.632576 3.239588 -2.288955 0.795090 8.452013 0.447828 -1.172993 -3.644344 3.340619 -2.009050 9.173130 0.932660 -0.881756 3.650317 0.000000 0.000000 0.000000 10.307679 -3.679040 -39.295651 31.328460 -42.005170 12.289046 36.046442 -7.175624 24.019345 0.000000 0.000000 0.000000 -7.125000 0.000000 0.000000 4.058893 1.181734 3.984431 0.000000 0.000000 0.000000 -0.923893 -0.197392 35.239901 -32.527924 -42.964057 -13.099219 -37.497934 30.747757 22.600166 0.000000 0.000000 0.000000 7.125000 0.000000 0.000000 -9.687624 57.401571 2.960962
6.508543 15.974557 0.776111 87.631828 -86.967640 -89.350622 0.000000 0.000000 0.000000 -15.189071 -3.403193 -14.793803 5.052706 13.442880 41.049808 2.813151 5.689049 -34.061392 2.402963 -9.659326 -27.880479 0.000000 0.000000 0.000000 8.724525 8.213410 -13.275622 -5.792602 -14.224302 44.143519 -1.858872 -7.592794 -29.420342 -0.114689 2.183419 -6.012816 -1.304336 0.961013 -8.891892 -3.197758 1.653159 3.177283 -2.395608 0.812678 8.431114 0.557658 -1.173111 -3.671723 3.449991 -2.012824 8.873287 0.948065 -0.877629 3.551125 0.000000 0.000000 0.000000 10.458216 -3.612385 -39.305322 31.301987 -41.983582 12.271350 35.860904 -6.945738 23.836956 0.000000 0.000000 0.000000 -7.125000 0.000000 0.000000 3.983560 1.442788 3.891452 0.000000 0.000000 0.000000 -0.803112 -0.108496 35.236735 -32.493335 -42.936970 -13.075643 -37.363693 30.735557 22.660625 0.000000 0.000000 0.000000 7.125000 0.000000 0.000000 -9.524052 57.438300 2.918857
6.506086 15.978300 0.773500 89.058405 -87.005602 -90.652178 0.000000 0.000000 0.000000 -15.135811 -3.417878 -14.906842 5.047550 13.437178 41.027785 2.804864 5.791175 -34.065319 2.439474 -9.727047 -28.097242 0.000000 0.000000 0.000000 8.789262 8.373119 -13.347294 -5.785014 -14.216714 44.112556 -1.850536 -7.692905 -29.427978 -0.113307 2.170353 -5.976637 -1.234833 1.020467 -9.007785 -3.241372 1.730404 3.145913 -2.467645 0.855166 8.471296 0.664069 -1.208987 -3.796840 3.505808 -2.063038 8.640811 0.944339 -0.897115 3.494605 0.000000 0.000000 0.000000 10.601426 -3.636368 -39.418221 31.243781 -41.935896 12.232418 35.904063 -6.993557 23.846733 0.000000 0.000000 0.000000 -7.125000 0.000000 0.000000 4.007460 1.419344 3.916675 0.000000 0.000000 0.000000 -0.678446 -0.024804 35.184676 -32.453449 -42.905699 -13.048485 -37.192677 30.417054 22.570137 0.000000 0.000000 0.000000 7.125000 0.000000 0.000000 -9.325213 57.290565 2.823828
6.505292 15.981542 0.770550 89.666401 -87.039508 -91.131253 0.000000 0.000000 0.000000 -15.073191 -3.420593 -15.042964 5.042800 13.431791 41.007083 2.798984 5.780675 -34.027732 2.459155 -9.763311 -28.213672 0.000000 0.000000 0.000000 8.883719 8.676396 -13.368842 -5.779641 -14.211341 44.090657 -1.870293 -7.818615 -29.633587 -0.099824 2.037785 -5.609999 -1.170039 1.063626 -9.156782 -3.259335 1.786101 3.122782 -2.512678 0.886326 8.537978 0.528611 -1.233876 -3.843933 3.709000 -2.094777 8.428791 1.032895 -0.910667 3.436106 0.000000 0.000000 0.000000 10.641510 -3.716396 -39.540124 31.105484 -41.822261 12.140062 36.036687 -7.187869 23.947487 0.000000 0.000000 0.000000 -7.125000 0.000000 0.000000 4.067093 1.266395 3.986302 0.000000 0.000000 0.000000 -0.623480 0.029220 35.147647 -32.444343 -42.898584 -13.042301 -37.408853 30.482550 22.877528 0.000000 0.000000 0.000000 7.125000 0.000000 0.000000 -9.566039 57.701304 2.992766
